<?xml version="1.0" standalone="no"?>
<!DOCTYPE svg PUBLIC "-//W3C//DTD SVG 20010904//EN"
 "http://www.w3.org/TR/2001/REC-SVG-20010904/DTD/svg10.dtd">
<svg version="1.0" xmlns="http://www.w3.org/2000/svg"
 width="1024.000000pt" height="1024.000000pt" viewBox="0 0 1024.000000 1024.000000"
 preserveAspectRatio="xMidYMid meet">

<g transform="translate(0.000000,1024.000000) scale(0.100000,-0.100000)"
fill="#000000" stroke="none">
<path d="M4930 10144 c-286 -19 -523 -48 -737 -90 -1321 -261 -2481 -1040
-3228 -2169 -440 -665 -708 -1411 -802 -2237 -22 -193 -25 -814 -5 -1008 99
-948 430 -1800 988 -2540 694 -921 1672 -1571 2789 -1855 411 -104 782 -149
1230 -149 287 0 441 10 695 45 1887 260 3472 1580 4075 3394 162 487 242 956
252 1485 16 817 -145 1562 -496 2285 -114 234 -187 364 -318 565 -500 763
-1179 1363 -1998 1765 -555 272 -1094 425 -1725 490 -139 14 -605 27 -720 19z
m449 -1255 c173 -40 334 -132 458 -262 87 -91 124 -146 173 -250 65 -139 85
-229 85 -397 0 -168 -20 -258 -85 -397 -49 -104 -86 -159 -173 -250 -177 -186
-411 -286 -672 -285 -253 0 -467 86 -648 261 -121 116 -203 251 -254 418 -24
80 -27 102 -27 253 0 151 3 173 27 253 48 155 117 276 221 386 236 248 562
346 895 270z m12 -2210 c268 -63 498 -259 597 -509 54 -135 52 -40 52 -2148 0
-1741 -2 -1961 -16 -2030 -95 -462 -595 -754 -1081 -632 -99 25 -260 105 -340
170 -127 102 -229 256 -275 416 l-23 79 0 1995 0 1995 23 79 c93 321 376 557
725 606 87 12 238 3 338 -21z"/>
</g>
</svg>
