<?xml version="1.0" standalone="no"?>
<!DOCTYPE svg PUBLIC "-//W3C//DTD SVG 20010904//EN"
 "http://www.w3.org/TR/2001/REC-SVG-20010904/DTD/svg10.dtd">
<svg version="1.0" xmlns="http://www.w3.org/2000/svg"
 width="128.000000pt" height="128.000000pt" viewBox="0 0 128.000000 128.000000"
 preserveAspectRatio="xMidYMid meet">

<g transform="translate(0.000000,128.000000) scale(0.100000,-0.100000)"
fill="#000000" stroke="none">
<path d="M143 1125 c-89 -63 -91 -66 -98 -112 -19 -140 70 -393 212 -605 93
-139 261 -295 339 -314 26 -7 211 76 232 103 22 30 12 67 -46 163 -52 86 -60
95 -90 98 -23 2 -50 -6 -90 -29 l-56 -32 -42 46 c-77 86 -159 227 -200 346
-19 52 -19 54 0 65 137 81 139 89 62 225 -78 137 -90 140 -223 46z"/>
<path d="M480 963 l0 -48 133 -90 c72 -49 138 -91 144 -93 11 -3 413 265 413
274 0 2 -155 4 -345 4 l-345 0 0 -47z"/>
<path d="M1001 815 c-124 -85 -231 -155 -239 -155 -8 0 -83 47 -168 105 l-154
106 -40 -27 c-22 -15 -40 -32 -40 -38 0 -23 102 -214 146 -273 l47 -62 46 24
c95 51 160 27 221 -81 l31 -54 179 0 c173 0 179 1 194 22 14 19 16 65 16 305
0 156 -3 283 -7 283 -5 -1 -109 -70 -232 -155z"/>
</g>
</svg>
