<?xml version="1.0" standalone="no"?>
<!DOCTYPE svg PUBLIC "-//W3C//DTD SVG 20010904//EN"
 "http://www.w3.org/TR/2001/REC-SVG-20010904/DTD/svg10.dtd">
<svg version="1.0" xmlns="http://www.w3.org/2000/svg"
 width="256.000000pt" height="256.000000pt" viewBox="0 0 256.000000 256.000000"
 preserveAspectRatio="xMidYMid meet">

<g transform="translate(0.000000,256.000000) scale(0.100000,-0.100000)"
fill="#000000" stroke="none">
<path d="M1209 2284 c-55 -23 -1203 -984 -1207 -1010 -2 -14 14 -43 44 -80 57
-73 81 -94 104 -94 10 0 266 207 570 460 304 253 556 460 560 460 4 0 256
-207 560 -460 304 -253 560 -460 570 -460 23 0 47 21 104 94 30 37 46 66 44
79 -2 14 -70 78 -185 175 l-183 153 0 332 c0 246 -3 336 -12 345 -17 17 -359
17 -376 0 -8 -8 -12 -62 -12 -175 0 -90 -3 -163 -6 -163 -3 0 -89 71 -192 158
-103 86 -207 167 -231 180 -51 25 -100 27 -152 6z"/>
<path d="M818 1508 l-448 -371 0 -406 c0 -400 0 -408 21 -430 11 -12 32 -26
46 -32 13 -5 164 -9 334 -9 l309 0 0 305 0 305 200 0 200 0 0 -305 0 -305 309
0 c170 0 321 4 334 9 14 6 35 20 46 32 21 22 21 30 21 430 l0 406 -450 372
c-248 204 -456 371 -463 370 -7 0 -213 -167 -459 -371z"/>
</g>
</svg>
