<?xml version="1.0" standalone="no"?>
<!DOCTYPE svg PUBLIC "-//W3C//DTD SVG 20010904//EN"
 "http://www.w3.org/TR/2001/REC-SVG-20010904/DTD/svg10.dtd">
<svg version="1.0" xmlns="http://www.w3.org/2000/svg"
 width="256.000000pt" height="256.000000pt" viewBox="0 0 256.000000 256.000000"
 preserveAspectRatio="xMidYMid meet">

<g transform="translate(0.000000,256.000000) scale(0.100000,-0.100000)"
fill="#000000" stroke="none">
<path d="M113 2545 c-18 -8 -42 -29 -53 -47 -18 -30 -20 -50 -20 -209 0 -149
2 -179 16 -190 11 -9 20 -10 32 -2 14 9 18 36 22 180 4 123 9 175 19 187 12
15 93 16 971 16 878 0 959 -1 971 -17 11 -13 15 -110 19 -496 5 -434 7 -481
22 -490 12 -8 21 -7 32 2 14 12 16 68 16 500 0 470 -1 487 -20 519 -40 65 7
62 -1042 62 -796 -1 -958 -3 -985 -15z"/>
<path d="M204 2317 c-2 -7 -3 -82 -2 -167 l3 -155 30 0 c29 0 30 2 33 51 l3
52 46 7 c68 10 103 48 103 112 0 51 -18 82 -57 102 -31 16 -152 14 -159 -2z
m140 -79 c16 -26 -4 -52 -43 -56 -30 -3 -31 -2 -31 38 0 40 1 41 31 38 18 -2
37 -11 43 -20z"/>
<path d="M470 2311 c-15 -28 -13 -294 2 -309 17 -17 55 -15 62 4 3 9 6 30 6
47 l1 32 44 -47 c44 -49 73 -59 95 -33 13 16 10 23 -33 77 l-30 38 26 20 c38
30 52 80 34 123 -22 52 -51 67 -129 67 -56 0 -69 -3 -78 -19z m131 -67 c18
-21 0 -48 -35 -52 -24 -3 -26 0 -26 32 0 31 3 36 24 36 13 0 29 -7 37 -16z"/>
<path d="M796 2307 c-47 -26 -86 -94 -86 -146 1 -51 32 -114 71 -141 22 -17
51 -25 90 -28 195 -14 258 236 82 327 -37 19 -114 13 -157 -12z m134 -62 c36
-19 50 -43 50 -89 0 -49 -34 -86 -87 -93 -37 -5 -45 -2 -73 25 -82 83 7 210
110 157z"/>
<path d="M1172 2318 c-8 -8 -12 -53 -12 -135 0 -94 -3 -123 -13 -123 -7 0 -18
5 -24 11 -18 18 -53 1 -53 -26 0 -55 97 -75 141 -29 22 24 24 34 27 155 4 134
-2 159 -37 159 -9 0 -22 -5 -29 -12z"/>
<path d="M1302 2318 c-8 -8 -12 -58 -12 -159 0 -141 1 -149 22 -163 26 -18
119 -22 149 -6 21 12 25 40 7 58 -7 7 -31 12 -55 12 -41 0 -43 1 -43 30 0 28
2 30 38 30 41 0 62 14 62 42 0 22 -29 38 -69 38 -28 0 -31 3 -31 29 0 29 2 30
52 33 56 3 73 23 48 53 -16 19 -150 21 -168 3z"/>
<path d="M1610 2323 c-92 -35 -136 -153 -90 -243 28 -56 72 -83 141 -88 47 -4
65 0 92 17 38 23 50 42 41 66 -10 25 -42 28 -70 6 -37 -29 -77 -27 -115 7 -72
64 -11 190 81 167 63 -16 77 -16 88 -2 30 36 -28 77 -105 76 -26 0 -55 -3 -63
-6z"/>
<path d="M1823 2314 c-9 -24 10 -48 41 -52 l26 -3 0 -123 c0 -129 5 -146 46
-146 30 0 34 15 34 150 l0 119 33 3 c28 3 32 6 32 33 l0 30 -103 3 c-88 2
-103 0 -109 -14z"/>
<path d="M52 1978 c-9 -9 -12 -225 -12 -912 0 -892 0 -900 21 -943 25 -51 76
-96 128 -112 46 -13 918 -16 939 -2 8 4 12 19 10 32 l-3 24 -352 3 c-194 1
-353 6 -353 10 0 4 9 25 20 47 15 29 20 59 20 117 0 132 -115 118 990 118
l950 0 21 -21 c19 -19 21 -30 17 -96 -5 -79 -20 -108 -72 -147 -27 -21 -40
-21 -569 -24 -484 -2 -543 -4 -554 -19 -9 -11 -9 -21 -2 -34 9 -18 33 -19 546
-19 395 0 546 3 577 12 52 16 121 84 136 135 7 23 11 77 9 126 -4 82 -6 88
-37 119 l-32 33 -143 5 -142 5 -3 28 c-3 24 0 27 27 27 16 0 42 5 56 12 25 11
85 100 100 147 11 35 -13 89 -52 115 -33 23 -35 27 -37 85 -1 48 2 62 15 66 8
3 29 19 45 36 39 41 38 87 -5 162 -38 67 -70 91 -117 90 l-33 -1 -3 75 c-3 80
-17 103 -52 90 -13 -5 -16 -22 -16 -92 0 -47 -2 -85 -5 -85 -3 0 -23 9 -44 20
-35 17 -39 24 -44 67 -4 37 -12 54 -36 75 -28 25 -38 28 -107 28 -111 0 -154
-32 -154 -115 0 -30 -5 -36 -55 -64 -53 -30 -56 -31 -80 -15 -40 26 -101 22
-133 -9 -32 -31 -82 -125 -82 -155 0 -36 22 -72 57 -93 32 -20 33 -23 33 -82
-1 -61 -2 -63 -40 -89 -58 -41 -63 -83 -19 -167 50 -94 112 -124 179 -84 27
16 30 15 84 -13 36 -18 55 -35 54 -44 -3 -13 -82 -16 -615 -20 l-613 -5 -32
-32 c-30 -30 -32 -38 -38 -125 -7 -102 -15 -123 -61 -162 -25 -21 -41 -26 -84
-26 -46 0 -59 5 -89 31 -20 17 -40 47 -46 67 -6 24 -10 351 -10 918 0 795 -2
882 -16 888 -22 8 -28 8 -42 -6z m1852 -674 c11 -4 16 -19 16 -53 0 -48 21
-91 45 -91 7 0 36 -16 65 -35 61 -41 72 -42 127 -13 48 26 62 19 94 -43 27
-54 24 -65 -23 -91 l-43 -23 -3 -105 -3 -105 46 -27 c25 -15 45 -35 45 -43 0
-22 -48 -102 -64 -108 -7 -3 -31 5 -52 19 -49 30 -58 30 -98 -1 -18 -13 -53
-34 -78 -45 -49 -21 -58 -34 -58 -81 l0 -30 -72 3 -73 3 -3 41 c-3 38 -7 43
-44 60 -23 10 -58 31 -79 46 -47 34 -53 34 -104 3 -22 -14 -43 -25 -48 -25
-12 0 -67 92 -67 111 0 10 19 31 43 46 l42 29 0 104 0 105 -42 23 c-50 28 -53
42 -17 106 29 51 44 56 89 26 38 -25 66 -25 96 -1 13 10 48 30 77 45 l52 26 0
49 c0 32 6 55 16 65 16 16 87 22 118 10z m184 -831 c-3 -37 -4 -38 -45 -41
-36 -3 -43 0 -43 15 0 15 58 59 83 62 5 1 7 -16 5 -36z"/>
<path d="M1770 1025 c-46 -21 -68 -42 -92 -90 -25 -48 -27 -128 -5 -171 31
-60 114 -114 177 -114 34 0 91 22 120 47 97 81 91 242 -12 311 -49 32 -136 40
-188 17z m148 -81 c32 -21 55 -79 47 -120 -8 -46 -65 -94 -111 -94 -78 0 -131
58 -121 132 12 89 109 132 185 82z"/>
<path d="M292 1898 c-18 -18 -14 -46 7 -58 13 -7 282 -10 801 -10 519 0 788 3
801 10 21 12 25 40 7 58 -17 17 -1599 17 -1616 0z"/>
<path d="M291 1722 c-72 -36 -76 -49 -79 -279 -3 -224 0 -242 49 -289 l30 -29
365 -3 c491 -4 464 -22 464 310 0 227 -5 247 -72 288 -31 19 -51 20 -378 20
-309 0 -349 -2 -379 -18z m708 -63 c19 -7 36 -22 42 -36 5 -13 9 -105 9 -204
0 -178 0 -180 -25 -204 l-24 -25 -334 0 c-315 0 -336 1 -358 19 -23 19 -24 24
-27 193 -4 198 4 241 46 256 39 15 630 15 671 1z"/>
<path d="M702 1592 c-9 -7 -12 -49 -10 -178 l3 -169 145 0 145 0 3 164 c2 112
-1 168 -9 177 -9 11 -42 14 -138 14 -69 0 -132 -4 -139 -8z m218 -177 l0 -105
-80 0 -80 0 0 105 0 105 80 0 80 0 0 -105z"/>
<path d="M351 1446 c-8 -9 -11 -47 -9 -107 l3 -94 139 -3 c93 -2 143 1 152 9
17 14 20 160 4 190 -10 17 -22 19 -144 19 -102 0 -136 -3 -145 -14z m219 -96
l0 -40 -80 0 -80 0 0 33 c0 19 3 37 7 40 3 4 39 7 80 7 l73 0 0 -40z"/>
<path d="M1238 1589 c-21 -12 -23 -40 -6 -57 17 -17 729 -17 746 0 18 18 14
46 -7 58 -26 14 -709 13 -733 -1z"/>
<path d="M1232 1441 c-8 -4 -12 -19 -10 -32 l3 -24 245 0 c228 0 245 1 248 18
9 44 -7 47 -247 47 -124 0 -232 -4 -239 -9z"/>
<path d="M220 1006 c-6 -8 -9 -24 -5 -36 6 -20 9 -20 538 -18 l532 3 0 30 0
30 -526 3 c-452 2 -528 0 -539 -12z"/>
<path d="M222 868 c-15 -15 -15 -41 0 -56 9 -9 147 -12 559 -12 484 0 549 2
563 16 20 19 20 29 0 48 -14 14 -79 16 -563 16 -412 0 -550 -3 -559 -12z"/>
<path d="M219 714 c-9 -11 -10 -20 -2 -32 9 -16 56 -17 539 -17 l529 0 0 30 0
30 -526 3 c-471 2 -528 1 -540 -14z"/>
<path d="M215 560 c-15 -48 -1 -51 278 -48 230 3 261 5 270 20 8 12 7 21 -2
32 -12 14 -49 16 -277 16 -256 0 -263 -1 -269 -20z"/>
</g>
</svg>
