<?xml version="1.0" standalone="no"?>
<!DOCTYPE svg PUBLIC "-//W3C//DTD SVG 20010904//EN"
 "http://www.w3.org/TR/2001/REC-SVG-20010904/DTD/svg10.dtd">
<svg version="1.0" xmlns="http://www.w3.org/2000/svg"
 width="512.000000pt" height="512.000000pt" viewBox="0 0 512.000000 512.000000"
 preserveAspectRatio="xMidYMid meet">

<g transform="translate(0.000000,512.000000) scale(0.100000,-0.100000)"
fill="#000000" stroke="none">
<path d="M2360 5109 c-276 -32 -550 -133 -782 -288 -110 -73 -158 -119 -158
-150 0 -10 9 -30 21 -45 34 -44 70 -36 174 39 426 305 963 385 1465 219 537
-178 954 -645 1070 -1197 75 -353 34 -713 -115 -1034 -42 -90 -128 -231 -186
-304 -53 -67 -30 -142 43 -142 24 0 39 9 64 37 58 67 128 178 191 305 303 601
239 1320 -165 1860 -253 337 -634 582 -1042 669 -186 40 -400 51 -580 31z"/>
<path d="M2373 4639 c-49 -24 -89 -78 -99 -134 -9 -53 -16 -61 -77 -81 -29 -9
-85 -33 -125 -52 -51 -25 -77 -33 -86 -27 -52 38 -70 48 -106 56 -77 18 -113
-1 -237 -124 -73 -71 -117 -123 -124 -145 -17 -52 -6 -118 30 -168 17 -25 31
-49 31 -55 0 -5 -11 -31 -24 -57 -13 -26 -36 -81 -51 -124 l-27 -76 -46 -7
c-65 -9 -123 -45 -150 -93 -20 -36 -22 -53 -22 -190 0 -83 5 -163 11 -179 24
-63 95 -113 162 -113 43 0 62 -16 77 -65 7 -22 28 -71 46 -109 40 -82 41 -96
13 -122 -30 -26 -59 -92 -59 -134 0 -19 9 -53 19 -75 22 -48 204 -229 244
-244 68 -26 164 -4 211 48 26 28 41 27 127 -13 41 -19 88 -38 104 -42 45 -10
55 -23 55 -68 1 -84 60 -164 138 -186 48 -13 256 -13 304 0 78 22 137 102 138
186 0 45 10 58 55 68 16 4 63 23 104 42 86 40 101 41 127 13 47 -52 143 -74
211 -48 40 15 222 196 244 244 10 22 19 56 19 75 0 42 -29 108 -59 134 -28 26
-27 40 13 122 18 38 39 87 46 109 15 49 34 65 77 65 67 0 138 50 162 113 6 16
11 96 11 179 0 137 -2 154 -22 190 -27 48 -85 84 -150 93 l-46 7 -27 76 c-15
43 -38 98 -51 124 -13 26 -24 52 -24 57 0 6 14 30 31 54 35 50 46 105 30 163
-8 31 -35 64 -123 151 -125 123 -160 142 -238 124 -36 -8 -54 -18 -106 -56 -9
-6 -35 2 -86 27 -40 19 -96 43 -125 52 -60 20 -68 28 -76 80 -9 54 -51 112
-101 136 -37 17 -62 20 -187 20 -125 0 -149 -3 -186 -21z m315 -141 c7 -7 12
-23 12 -37 0 -37 38 -108 70 -131 15 -11 60 -31 99 -45 40 -15 104 -42 144
-61 40 -19 87 -34 107 -34 35 0 95 25 138 56 22 16 24 15 112 -72 50 -48 90
-93 90 -99 0 -6 -14 -30 -32 -54 -47 -64 -49 -118 -8 -212 18 -40 43 -104 56
-142 13 -37 33 -81 44 -97 26 -36 88 -70 128 -70 58 0 63 -12 60 -150 l-3
-124 -45 -8 c-77 -13 -89 -17 -124 -49 -23 -20 -44 -53 -62 -102 -15 -40 -42
-103 -61 -142 -49 -104 -42 -185 23 -246 13 -12 24 -29 24 -38 0 -24 -161
-181 -186 -181 -11 0 -31 12 -45 26 -52 57 -147 71 -222 33 -23 -12 -81 -37
-130 -55 -49 -18 -101 -43 -115 -56 -34 -32 -62 -95 -62 -144 0 -22 -5 -45
-12 -52 -8 -8 -51 -12 -128 -12 -77 0 -120 4 -128 12 -7 7 -12 30 -12 52 -1
89 -57 160 -152 192 -29 9 -86 32 -127 51 -109 49 -192 43 -250 -21 -14 -14
-34 -26 -45 -26 -25 0 -186 157 -186 181 0 8 11 26 24 38 65 61 72 142 23 246
-19 39 -46 102 -61 142 -18 49 -39 82 -62 102 -35 32 -47 36 -124 49 l-45 8
-3 124 c-3 138 2 150 60 150 40 0 102 34 128 70 11 16 31 60 44 97 13 38 38
102 56 142 41 94 39 148 -8 212 -18 24 -32 48 -32 54 0 6 40 51 90 99 88 87
90 88 112 72 43 -31 103 -56 138 -56 20 0 67 15 107 34 40 19 104 46 144 61
39 14 84 34 99 45 32 23 70 94 70 131 0 43 16 49 140 49 77 0 120 -4 128 -12z"/>
<path d="M2445 4150 c-292 -46 -535 -252 -631 -535 -39 -115 -46 -304 -15
-425 63 -250 230 -445 463 -541 514 -212 1079 166 1078 720 -1 204 -57 360
-189 519 -86 104 -262 212 -402 246 -83 20 -227 28 -304 16z m287 -166 c159
-47 323 -183 391 -324 49 -101 67 -177 67 -285 0 -104 -19 -194 -55 -265 l-25
-49 -65 63 c-35 36 -93 81 -127 102 -35 20 -65 39 -67 40 -2 2 7 27 19 56 29
68 32 171 6 246 -24 70 -100 153 -174 189 -49 24 -69 28 -142 28 -73 0 -93 -4
-142 -28 -74 -36 -150 -119 -174 -189 -26 -75 -23 -178 7 -247 12 -30 19 -56
13 -58 -32 -11 -148 -96 -196 -145 l-58 -58 -25 50 c-54 106 -71 291 -40 415
61 238 276 438 512 475 74 11 208 3 275 -16z m-97 -363 c106 -48 143 -178 78
-277 -63 -96 -243 -96 -306 0 -28 43 -40 108 -28 154 22 79 102 142 181 142
19 0 53 -9 75 -19z m-185 -486 c56 -20 160 -19 226 2 l53 16 73 -36 c53 -26
93 -56 141 -106 37 -38 67 -74 67 -79 0 -16 -99 -91 -164 -124 -173 -88 -397
-89 -568 -2 -64 32 -168 111 -168 127 0 25 150 158 212 187 73 35 72 35 128
15z"/>
<path d="M1183 4463 c-102 -112 -252 -386 -313 -571 -71 -219 -101 -470 -82
-684 23 -249 72 -429 177 -643 77 -157 137 -249 244 -375 192 -225 287 -360
373 -535 l42 -85 -36 -30 c-54 -44 -88 -120 -88 -194 0 -62 24 -132 57 -168
15 -17 15 -19 0 -36 -73 -81 -74 -253 0 -334 14 -15 13 -20 -10 -50 -58 -78
-63 -200 -11 -284 37 -62 110 -111 173 -120 l48 -6 6 -53 c11 -111 83 -212
186 -262 l56 -28 555 0 555 0 56 28 c103 50 175 151 186 262 l6 53 48 6 c63 9
136 58 173 120 52 84 47 206 -11 284 -23 30 -24 35 -10 50 74 81 73 253 0 334
-15 17 -15 19 0 36 33 36 57 106 57 168 0 74 -34 150 -88 194 l-37 30 53 104
c29 57 84 151 122 208 39 58 70 114 70 125 0 36 -38 73 -75 73 -30 0 -41 -8
-76 -52 -53 -68 -171 -267 -211 -357 l-31 -71 -786 0 -786 1 -57 117 c-92 188
-179 315 -393 567 -501 591 -524 1422 -59 2041 63 84 70 120 28 153 -40 31
-71 27 -111 -16z m2230 -3024 c37 -19 57 -52 57 -95 0 -52 -28 -90 -78 -104
-51 -14 -1613 -14 -1664 0 -93 26 -108 152 -23 198 29 16 1678 17 1708 1z m28
-388 c39 -39 41 -106 5 -148 l-24 -28 -612 -5 -612 -5 -19 -24 c-25 -30 -24
-76 1 -101 20 -20 33 -20 605 -20 629 0 633 0 669 -51 33 -48 12 -134 -39
-157 -36 -17 -1676 -17 -1708 -1 -37 19 -57 52 -57 94 0 82 52 115 183 115 95
0 120 15 120 71 0 57 -29 73 -149 79 -101 5 -107 6 -130 33 -36 42 -34 109 5
148 l29 29 852 0 852 0 29 -29z m-231 -726 c0 -31 -25 -93 -48 -119 -9 -10
-35 -27 -57 -37 -37 -17 -76 -19 -545 -19 -469 0 -508 2 -545 19 -22 10 -48
27 -57 37 -23 26 -48 88 -48 119 l0 25 650 0 650 0 0 -25z"/>
</g>
</svg>
